<svg width="20" height="20" viewBox="0 0 20 20" fill="none" xmlns="http://www.w3.org/2000/svg">
<path d="M10 0C4.47748 0 0 4.47748 0 10C0 15.5225 4.47748 20 10 20C15.5225 20 20 15.5225 20 10C20 4.47748 15.5225 0 10 0ZM10 17.8829C5.64504 17.8829 2.11712 14.3532 2.11712 10C2.11712 5.64685 5.64685 2.11712 10 2.11712C14.3532 2.11712 17.8829 5.64685 17.8829 10C17.8829 14.355 14.3532 17.8829 10 17.8829Z" fill="#FF3535"/>
<path fill-rule="evenodd" clip-rule="evenodd" d="M8.09447 12.1746L8.09285 12.1763L9.36152 13.4449L14.871 7.93541L13.6024 6.66675L9.36314 10.906L6.82433 8.36715L5.55566 9.63582L8.09447 12.1746Z" fill="#FF3535"/>
</svg>
