<svg width="64" height="41" viewBox="0 0 64 41" fill="none" xmlns="http://www.w3.org/2000/svg">
<path d="M3.31201 10.1507H1.77832V0.416016H3.33815L6.50139 4.79633L9.63557 0.416016H11.1693V10.1507H9.63557V2.75257L6.91676 6.42554H6.02501L3.3062 2.75257V10.1507H3.31201Z" fill="black"/>
<path d="M16.7323 10.33C15.6372 10.33 14.7338 9.98212 14.028 9.28637C13.3221 8.59062 12.9678 7.73833 12.9678 6.72659C12.9678 5.72646 13.3192 4.87706 14.028 4.18132C14.7338 3.48557 15.6343 3.1377 16.7323 3.1377C17.8099 3.1377 18.7075 3.48557 19.422 4.18132C20.1279 4.87706 20.4823 5.72646 20.4823 6.72659C20.4823 7.72673 20.1279 8.58192 19.422 9.28637C18.7075 9.98212 17.8099 10.33 16.7323 10.33ZM16.7323 9.01097C17.3626 9.01097 17.8971 8.79354 18.3357 8.3558C18.7627 7.92966 18.9776 7.38756 18.9776 6.72949C18.9776 6.08013 18.7627 5.54382 18.3357 5.11768C17.9 4.68283 17.3655 4.46541 16.7323 4.46541C16.0903 4.46541 15.553 4.68283 15.1144 5.11768C14.6874 5.54382 14.4724 6.08303 14.4724 6.72949C14.4724 7.38756 14.6874 7.92966 15.1144 8.3558C15.553 8.79065 16.0903 9.01097 16.7323 9.01097Z" fill="black"/>
<path d="M24.577 10.331C23.3599 10.331 22.4072 10.0991 21.7217 9.63525V8.21766C22.5205 8.76556 23.45 9.03806 24.5073 9.03806C24.9808 9.03806 25.3497 8.96559 25.614 8.82354C25.8783 8.67859 26.0119 8.48146 26.0119 8.23216C26.0119 8.00894 25.8725 7.8292 25.5937 7.69005C25.4717 7.63497 25.2538 7.5654 24.9401 7.48133L24.089 7.2726C23.2815 7.06968 22.6948 6.80587 22.3346 6.48699C21.9715 6.1681 21.7914 5.71877 21.7914 5.14478C21.7914 4.5244 22.047 4.03448 22.5582 3.67791C23.0695 3.32134 23.7811 3.1416 24.6903 3.1416C25.7389 3.1416 26.5813 3.34453 27.2116 3.75328V5.13028C26.3838 4.66645 25.5617 4.43453 24.7455 4.43453C24.2895 4.43453 23.9409 4.50121 23.6998 4.63746C23.4587 4.77081 23.3367 4.95634 23.3367 5.18826C23.3367 5.40278 23.4819 5.58252 23.7695 5.73036C23.8073 5.74776 24.0251 5.81733 24.4231 5.93909L25.2161 6.10723C26.7759 6.4493 27.5573 7.16824 27.5573 8.26404C27.5573 8.88442 27.2842 9.38594 26.7352 9.7657C26.1891 10.1426 25.4688 10.331 24.577 10.331Z" fill="black"/>
<path d="M32.478 10.331C31.4469 10.331 30.5725 9.99182 29.858 9.31636C29.1434 8.62931 28.7861 7.76253 28.7861 6.71601C28.7861 5.66949 29.1434 4.8114 29.858 4.14174C30.5812 3.47498 31.4614 3.1416 32.4926 3.1416C33.2739 3.1416 33.9594 3.29815 34.5549 3.61413V4.90706C33.9333 4.61137 33.3204 4.46062 32.7162 4.46062C32.0278 4.46062 31.4527 4.67515 30.9879 5.10129C30.5232 5.53613 30.2908 6.07824 30.2908 6.7276C30.2908 7.38566 30.5232 7.93356 30.9879 8.36841C31.4527 8.79455 32.0278 9.00907 32.7162 9.00907C33.4511 9.00907 34.1018 8.83804 34.6682 8.49306V9.7744C34.0146 10.1455 33.2855 10.331 32.478 10.331Z" fill="black"/>
<path d="M39.6561 10.33C38.561 10.33 37.6577 9.98212 36.9518 9.28637C36.246 8.59062 35.8916 7.73833 35.8916 6.72659C35.8916 5.72646 36.2431 4.87706 36.9518 4.18132C37.6577 3.48557 38.5581 3.1377 39.6561 3.1377C40.7338 3.1377 41.6313 3.48557 42.3459 4.18132C43.0517 4.87706 43.4061 5.72646 43.4061 6.72659C43.4061 7.72673 43.0517 8.58192 42.3459 9.28637C41.6284 9.98212 40.7338 10.33 39.6561 10.33ZM39.6561 9.01097C40.2864 9.01097 40.8209 8.79354 41.2595 8.3558C41.6865 7.92966 41.9015 7.38756 41.9015 6.72949C41.9015 6.08013 41.6865 5.54382 41.2595 5.11768C40.8238 4.68283 40.2893 4.46541 39.6561 4.46541C39.0142 4.46541 38.4768 4.68283 38.0382 5.11768C37.6112 5.54382 37.3962 6.08303 37.3962 6.72949C37.3962 7.38756 37.6112 7.92966 38.0382 8.3558C38.4768 8.79065 39.0142 9.01097 39.6561 9.01097Z" fill="black"/>
<path d="M47.9196 10.206H46.624L44.2422 3.32098H45.7759L47.3793 7.9651L48.9682 3.29199H50.2085L51.8235 7.9651L53.4124 3.32098H54.9315L52.5351 10.206H51.2251L49.5665 5.4923L47.9196 10.206Z" fill="black"/>
<path d="M6.57402 23.9407H1.78125V14.2061H6.21383C7.09687 14.2061 7.7969 14.4206 8.31104 14.8467C8.82517 15.2729 9.08369 15.8585 9.08369 16.5977C9.08369 17.0789 8.96169 17.4964 8.7206 17.85C8.47951 18.2037 8.16871 18.453 7.78819 18.6009C8.40109 18.711 8.9007 19.0009 9.28702 19.4619C9.67335 19.9257 9.86506 20.5055 9.86506 21.2012C9.86506 22.0274 9.56878 22.6884 8.97331 23.1899C8.38656 23.6914 7.58486 23.9407 6.57402 23.9407ZM3.31203 15.612V18.1283H5.94661C6.45783 18.1283 6.85577 18.0182 7.13753 17.8008C7.42219 17.5833 7.56162 17.2702 7.56162 16.8615C7.56162 16.4527 7.41929 16.1426 7.13753 15.9309C6.85287 15.7164 6.45783 15.612 5.94661 15.612H3.31203ZM3.31203 19.4763V22.5347H6.29517C6.89063 22.5347 7.35539 22.3985 7.69524 22.1231C8.03509 21.8506 8.20356 21.4679 8.20356 20.9751C8.20356 20.4939 8.03509 20.1228 7.70105 19.8619C7.367 19.6039 6.89645 19.4735 6.29227 19.4735H3.31203V19.4763Z" fill="black"/>
<path d="M16.607 21.6047V17.1113H18.1116V23.9413H16.607V23.0368C15.9389 23.7586 15.1024 24.121 14.0973 24.121C13.2898 24.121 12.6653 23.8717 12.2238 23.3702C11.7823 22.8686 11.5615 22.1729 11.5615 21.2829V17.1113H13.0662V20.9495C13.0662 22.1265 13.6006 22.715 14.6696 22.715C15.0414 22.715 15.4074 22.6106 15.7705 22.4019C16.1335 22.1961 16.4124 21.9294 16.607 21.6047Z" fill="black"/>
<path d="M22.6952 24.124C21.4781 24.124 20.5254 23.8921 19.8398 23.4282V22.0106C20.6386 22.5585 21.5681 22.831 22.6255 22.831C23.0989 22.831 23.4678 22.7586 23.7322 22.6165C23.9965 22.4716 24.1301 22.2744 24.1301 22.0251C24.1301 21.8019 23.9907 21.6222 23.7118 21.483C23.5898 21.4279 23.372 21.3584 23.0583 21.2743L22.2072 21.0656C21.3997 20.8627 20.8129 20.5988 20.4527 20.28C20.0926 19.9611 19.9096 19.5117 19.9096 18.9377C19.9096 18.3174 20.1652 17.8274 20.6764 17.4709C21.1876 17.1143 21.8993 16.9346 22.8085 16.9346C23.8571 16.9346 24.6994 17.1375 25.3298 17.5462V18.9233C24.5019 18.4594 23.6799 18.2275 22.8637 18.2275C22.4076 18.2275 22.059 18.2942 21.818 18.4304C21.5769 18.5638 21.4549 18.7493 21.4549 18.9812C21.4549 19.1958 21.6001 19.3755 21.8877 19.5233C21.9254 19.5407 22.1433 19.6103 22.5412 19.7321L23.3342 19.9002C24.894 20.2423 25.6754 20.9612 25.6754 22.057C25.6754 22.6774 25.4024 23.1789 24.8534 23.5587C24.3073 23.9326 23.5869 24.124 22.6952 24.124Z" fill="black"/>
<path d="M28.2692 15.8909C27.999 15.8909 27.7754 15.801 27.5924 15.6184C27.4123 15.4387 27.3193 15.2126 27.3193 14.9429C27.3193 14.6733 27.4094 14.4472 27.5924 14.2617C27.7725 14.0762 27.999 13.9834 28.2692 13.9834C28.5306 13.9834 28.7514 14.0762 28.9315 14.2617C29.1115 14.4472 29.2045 14.6733 29.2045 14.9429C29.2045 15.2126 29.1145 15.4358 28.9315 15.6184C28.7514 15.801 28.5306 15.8909 28.2692 15.8909ZM29.0215 23.9413H27.5169V17.1114H29.0215V23.9413Z" fill="black"/>
<path d="M32.8005 19.4509V23.9442H31.293V17.1143H32.7976V18.0188C33.4657 17.2969 34.3023 16.9346 35.3073 16.9346C36.1148 16.9346 36.7393 17.1839 37.1808 17.6854C37.6223 18.1869 37.8431 18.8827 37.8431 19.7726V23.9442H36.3385V20.106C36.3385 18.929 35.804 18.3406 34.7351 18.3406C34.3633 18.3406 33.9973 18.4449 33.6342 18.6536C33.274 18.8595 32.9951 19.1262 32.8005 19.4509Z" fill="black"/>
<path d="M39.3623 20.5205C39.3623 19.4914 39.6876 18.6391 40.3383 17.9608C40.9977 17.2737 41.8429 16.9316 42.8741 16.9316C43.58 16.9316 44.1783 17.1172 44.6721 17.4882C45.6394 18.1753 46.1216 19.2044 46.1216 20.5756V20.9641H40.8815C40.9744 21.5381 41.2504 21.9874 41.7093 22.3121C42.1683 22.6368 42.7521 22.7991 43.458 22.7991C44.2393 22.7991 44.9713 22.5962 45.6597 22.1874V23.4543C45.0265 23.9007 44.187 24.121 43.1384 24.121C42.0898 24.121 41.1923 23.7877 40.4487 23.1209C39.7254 22.4541 39.3623 21.5874 39.3623 20.5205ZM40.896 19.8248H44.6024C44.585 19.3986 44.4223 19.0218 44.1144 18.6971C43.7978 18.3637 43.3621 18.1956 42.8044 18.1956C42.2757 18.1956 41.8371 18.3521 41.4886 18.6623C41.14 18.9754 40.9425 19.361 40.896 19.8248Z" fill="black"/>
<path d="M50.2606 24.124C49.0435 24.124 48.0908 23.8921 47.4053 23.4282V22.0106C48.2041 22.5585 49.1336 22.831 50.1909 22.831C50.6644 22.831 51.0333 22.7586 51.2976 22.6165C51.5619 22.4716 51.6955 22.2744 51.6955 22.0251C51.6955 21.8019 51.5561 21.6222 51.2773 21.483C51.1553 21.4279 50.9374 21.3584 50.6237 21.2743L49.7726 21.0656C48.9651 20.8627 48.3784 20.5988 48.0182 20.28C47.658 19.9611 47.475 19.5117 47.475 18.9377C47.475 18.3174 47.7306 17.8274 48.2418 17.4709C48.7531 17.1143 49.4647 16.9346 50.3739 16.9346C51.4225 16.9346 52.2649 17.1375 52.8952 17.5462V18.9233C52.0673 18.4594 51.2453 18.2275 50.4291 18.2275C49.973 18.2275 49.6245 18.2942 49.3834 18.4304C49.1423 18.5638 49.0203 18.7493 49.0203 18.9812C49.0203 19.1958 49.1655 19.3755 49.4531 19.5233C49.4909 19.5407 49.7087 19.6103 50.1067 19.7321L50.8996 19.9002C52.4595 20.2423 53.2408 20.9612 53.2408 22.057C53.2408 22.6774 52.9678 23.1789 52.4188 23.5587C51.8698 23.9326 51.1524 24.124 50.2606 24.124Z" fill="black"/>
<path d="M57.3954 24.124C56.1783 24.124 55.2256 23.8921 54.54 23.4282V22.0106C55.3388 22.5585 56.2683 22.831 57.3257 22.831C57.7991 22.831 58.168 22.7586 58.4324 22.6165C58.6967 22.4716 58.8303 22.2744 58.8303 22.0251C58.8303 21.8019 58.6909 21.6222 58.412 21.483C58.29 21.4279 58.0722 21.3584 57.7585 21.2743L56.9074 21.0656C56.0999 20.8627 55.5131 20.5988 55.1529 20.28C54.7898 19.9611 54.6098 19.5117 54.6098 18.9377C54.6098 18.3174 54.8654 17.8274 55.3766 17.4709C55.8878 17.1143 56.5995 16.9346 57.5087 16.9346C58.5573 16.9346 59.3996 17.1375 60.03 17.5462V18.9233C59.2021 18.4594 58.3801 18.2275 57.5639 18.2275C57.1078 18.2275 56.7592 18.2942 56.5182 18.4304C56.2771 18.5638 56.1551 18.7493 56.1551 18.9812C56.1551 19.1958 56.3003 19.3755 56.5879 19.5233C56.6256 19.5407 56.8435 19.6103 57.2414 19.7321L58.0344 19.9002C59.5943 20.2423 60.3756 20.9612 60.3756 22.057C60.3756 22.6774 60.1026 23.1789 59.5536 23.5587C59.0075 23.9326 58.2871 24.124 57.3954 24.124Z" fill="black"/>
<path d="M2.50455 37.7341H0.875L5.13913 27.9443H6.61763L10.8817 37.7341H9.23767L8.17746 35.3135H3.55025L2.50455 37.7341ZM5.8624 29.875L4.0789 33.9626H7.64589L5.8624 29.875Z" fill="black"/>
<path d="M15.3257 37.914C14.2945 37.914 13.4202 37.5748 12.7056 36.8994C11.9911 36.2123 11.6338 35.3455 11.6338 34.299C11.6338 33.2525 11.9911 32.3944 12.7056 31.7248C13.4289 31.058 14.309 30.7246 15.3402 30.7246C16.1216 30.7246 16.8071 30.8812 17.4026 31.1971V32.4901C16.7809 32.1944 16.168 32.0436 15.5639 32.0436C14.8754 32.0436 14.3003 32.2582 13.8356 32.6843C13.3708 33.1191 13.1384 33.6612 13.1384 34.3106C13.1384 34.9687 13.3708 35.5166 13.8356 35.9514C14.3003 36.3776 14.8754 36.5921 15.5639 36.5921C16.2988 36.5921 16.9494 36.421 17.5158 36.0761V37.3545C16.8623 37.7285 16.1332 37.914 15.3257 37.914Z" fill="black"/>
<path d="M25.7885 36.566C25.9367 36.566 26.0732 36.5341 26.1923 36.4674V37.6067C25.9889 37.7545 25.6956 37.8299 25.315 37.8299C24.5337 37.8299 24.0573 37.5052 23.8801 36.8559C23.2585 37.5603 22.4161 37.914 21.3588 37.914C20.6239 37.914 20.011 37.711 19.5201 37.3023C19.038 36.9022 18.7969 36.3427 18.7969 35.618C18.7969 34.8962 19.0612 34.3396 19.5899 33.9482C20.1098 33.5482 20.7605 33.351 21.5418 33.351C22.3697 33.351 23.0988 33.5279 23.7291 33.8786V33.5018C23.7291 32.5103 23.061 32.0146 21.7219 32.0146C20.9406 32.0146 20.2202 32.2175 19.5608 32.6263V31.3044C20.2376 30.9159 21.0713 30.7217 22.056 30.7217C23.0232 30.7217 23.7901 30.9507 24.3623 31.4087C24.9345 31.8668 25.2192 32.5103 25.2192 33.3336V35.8789C25.2192 36.0934 25.2715 36.2587 25.379 36.3804C25.4864 36.5051 25.6229 36.566 25.7885 36.566ZM23.7262 35.8006V34.9657C23.151 34.6411 22.541 34.4787 21.902 34.4787C21.3995 34.4787 21.0074 34.5715 20.7256 34.757C20.4409 34.9425 20.3015 35.2035 20.3015 35.5368C20.3015 35.8905 20.4351 36.1572 20.6995 36.3427C20.9638 36.5283 21.324 36.621 21.78 36.621C22.1518 36.621 22.5149 36.5457 22.8664 36.392C23.2178 36.2384 23.5054 36.0412 23.7262 35.8006Z" fill="black"/>
<path d="M30.5145 37.9144C29.5472 37.9144 28.7542 37.5665 28.1326 36.8708C27.511 36.1837 27.2002 35.3314 27.2002 34.311C27.2002 33.2993 27.511 32.4528 28.1326 31.7657C28.7542 31.07 29.5501 30.7221 30.5145 30.7221C31.5631 30.7221 32.3764 31.0931 32.9545 31.8353V27.9971H34.4591V37.7318H32.9545V36.8012C32.3764 37.5433 31.5631 37.9144 30.5145 37.9144ZM30.9182 36.5925C31.354 36.5925 31.7548 36.4794 32.1179 36.2504C32.481 36.0243 32.7598 35.7286 32.9545 35.3662V33.2558C32.7598 32.9021 32.4781 32.6151 32.1121 32.3861C31.7461 32.16 31.3481 32.044 30.9211 32.044C30.2879 32.044 29.7651 32.2672 29.3468 32.7108C28.9285 33.1456 28.7194 33.679 28.7194 34.311C28.7194 34.9517 28.9285 35.4938 29.3468 35.9373C29.7622 36.375 30.285 36.5925 30.9182 36.5925Z" fill="black"/>
<path d="M36.1152 34.3135C36.1152 33.2844 36.4406 32.4321 37.0912 31.7537C37.7506 31.0667 38.5959 30.7246 39.627 30.7246C40.3329 30.7246 40.9312 30.9101 41.425 31.2812C42.3923 31.9683 42.8745 32.9974 42.8745 34.3686V34.757H37.6344C37.7274 35.331 38.0033 35.7804 38.4622 36.1051C38.9212 36.4297 39.505 36.5921 40.2109 36.5921C40.9922 36.5921 41.7242 36.3892 42.4126 35.9804V37.2472C41.7794 37.6937 40.94 37.914 39.8914 37.914C38.8428 37.914 37.9452 37.5806 37.2016 36.9139C36.4783 36.2442 36.1152 35.3774 36.1152 34.3135ZM37.6489 33.6178H41.3553C41.3379 33.1916 41.1752 32.8148 40.8673 32.4901C40.5507 32.1567 40.115 31.9886 39.5573 31.9886C39.0287 31.9886 38.5901 32.1451 38.2415 32.4553C37.8929 32.7655 37.6954 33.1539 37.6489 33.6178Z" fill="black"/>
<path d="M46.0779 37.7343H44.5732V30.9043H46.0779V31.7943C46.5978 31.0812 47.3502 30.7246 48.3349 30.7246C48.8635 30.7246 49.3195 30.8348 49.7001 31.058C50.0806 31.2812 50.3449 31.5769 50.4931 31.948C50.7429 31.5769 51.0885 31.2812 51.53 31.058C51.9716 30.8348 52.4566 30.7246 52.9853 30.7246C53.7463 30.7246 54.3418 30.9623 54.7688 31.4349C55.1958 31.9074 55.4107 32.5857 55.4107 33.4641V37.7343H53.9061V33.812C53.9061 32.6901 53.4413 32.1277 52.5118 32.1277C52.1487 32.1277 51.8031 32.2379 51.4748 32.4553C51.1437 32.6727 50.9055 32.9452 50.7574 33.2699V37.7343H49.2527V33.812C49.2527 32.6901 48.7822 32.1277 47.844 32.1277C47.4896 32.1277 47.1497 32.2321 46.8186 32.4408C46.4875 32.6495 46.2406 32.9104 46.0721 33.2264V37.7343H46.0779Z" fill="black"/>
<path d="M58.1182 40.5839C57.5517 40.5839 57.1393 40.5085 56.8779 40.3607V39.0388C57.1741 39.1866 57.5053 39.262 57.8684 39.262C58.2489 39.262 58.5713 39.1228 58.8356 38.8445C59.1 38.5662 59.3672 38.1111 59.6373 37.482L56.6426 30.9043H58.3157L60.378 35.7166L62.3707 30.9043H64.0002L60.7266 38.4706C60.1108 39.8794 59.2423 40.5839 58.1182 40.5839Z" fill="black"/>
</svg>
