<svg width="64" height="63" viewBox="0 0 64 63" fill="none" xmlns="http://www.w3.org/2000/svg">
<path d="M63.1252 0H0V63H63.1252V0Z" fill="#FF3535"/>
<path fill-rule="evenodd" clip-rule="evenodd" d="M43.951 35.4924L43.9539 35.4866L43.9568 35.4837L43.9597 35.4779L43.9626 35.475L43.9655 35.4721L43.9684 35.4663L43.9742 35.4576L43.9771 35.4547L43.98 35.4489L43.9829 35.446L43.9858 35.4402L43.9887 35.4373L43.9945 35.4315L43.9974 35.4286L44.0032 35.4228L44.0061 35.4199L44.012 35.4142V35.4113L44.0178 35.4055V35.4026L44.0236 35.3968L44.0294 35.391L44.0352 35.3852H44.0381L44.0439 35.3794L44.0468 35.3765L44.0526 35.3707H44.0555L44.0613 35.3649L44.0642 35.362L44.0701 35.3562L44.073 35.3533L44.0788 35.3475L44.0817 35.3446L44.0875 35.3417L44.0904 35.3388L44.0962 35.3359L44.0991 35.333L44.1078 35.3272L44.1136 35.3243L44.1165 35.3214L44.1194 35.3185L44.1252 35.3156L44.1281 35.3127L44.134 35.3098L44.1369 35.3069L44.1427 35.304H44.1456L44.1514 35.3011H44.1543L44.163 35.2982H44.1659L44.1746 35.2953L44.1833 35.2924C44.195 35.2866 44.2095 35.2837 44.2211 35.2808L44.2298 35.2779L44.2385 35.275H44.2414L44.2501 35.2721C44.2589 35.2692 44.2705 35.2692 44.2792 35.2663H44.2821H44.2908H44.2937H44.3024H44.3053H44.314H44.3228H44.3257H44.3315H44.3344H44.3373H44.346H44.3518H44.3547H44.3634H44.3663H44.375H44.378C44.3867 35.2663 44.3983 35.2692 44.407 35.2721L44.4157 35.275H44.4186L44.4273 35.2779L44.436 35.2808C44.4477 35.2837 44.4622 35.2895 44.4738 35.2924L44.4825 35.2953L44.4912 35.2982H44.4941L44.5029 35.3011H44.5058L44.5116 35.304H44.5145L44.5203 35.3069L44.5232 35.3098L44.529 35.3127L44.5319 35.3156L44.5377 35.3185L44.5406 35.3214L44.5435 35.3243L44.5493 35.3272L44.558 35.333L44.5609 35.3359L44.5668 35.3388L44.5697 35.3417L44.5755 35.3446L44.5784 35.3475L44.5842 35.3533L44.5871 35.3562L44.5929 35.362L44.5958 35.3649L44.6016 35.3707H44.6045L44.6103 35.3765L44.6132 35.3794L44.619 35.3852H44.6219L44.6278 35.391L44.6336 35.3968L44.6394 35.4026L44.6423 35.4055L44.6481 35.4113L44.651 35.4142L44.6568 35.4199L44.6597 35.4228L44.6655 35.4286L44.6684 35.4315L44.6742 35.4373L44.6771 35.4402L44.68 35.446L44.6829 35.4489L44.6859 35.4547L44.6888 35.4576L44.6946 35.4663L44.6975 35.4721L44.7004 35.475L44.7033 35.4779L44.7062 35.4837L44.7091 35.4866L44.712 35.4924L44.7149 35.4953L46.3009 38.516C46.3415 38.5798 46.3677 38.6581 46.3677 38.7392V43.8588H49.4931C49.7226 43.8588 49.9056 44.0443 49.9056 44.2704C49.9056 44.4995 49.7197 44.6821 49.4931 44.6821H45.9204C45.6909 44.6821 45.5079 44.4966 45.5079 44.2704V38.8349L44.317 36.565L43.126 38.8349V41.7571C43.126 41.9861 42.9401 42.1687 42.7136 42.1687H39.3208C39.0914 42.1687 38.9084 41.9832 38.9084 41.7571V36.0896H38.2374C38.0457 36.0896 37.883 35.9592 37.8365 35.7823L37.1888 33.9444L36.4975 35.8171C36.4365 35.9852 36.2767 36.0867 36.1111 36.0867H34.9551C34.7256 36.0867 34.5426 35.9012 34.5426 35.6751V30.8686L33.0496 28.7553C33.0002 28.6828 32.974 28.6016 32.974 28.5175V24.2532L31.5653 16.0057L30.1565 24.2532V28.5175C30.1565 28.5987 30.1303 28.6828 30.081 28.7553L28.5879 30.8686V35.6751C28.5879 35.9041 28.402 36.0867 28.1755 36.0867H27.0194C26.8509 36.0867 26.6941 35.9823 26.6331 35.8171L25.9417 33.9444L25.294 35.7823C25.2475 35.9592 25.0848 36.0896 24.8931 36.0896H24.2221V41.7571C24.2221 41.9861 24.0362 42.1687 23.8097 42.1687H20.417C20.1875 42.1687 20.0045 41.9832 20.0045 41.7571V38.8349L18.8136 36.565L17.6226 38.8349V44.2704C17.6226 44.4995 17.4367 44.6821 17.2102 44.6821H13.6722C13.4428 44.6821 13.2598 44.4966 13.2598 44.2704C13.2598 44.0414 13.4457 43.8588 13.6722 43.8588H16.7977V38.7392C16.7977 38.6581 16.8209 38.5798 16.8645 38.516L18.4505 35.4953L18.4534 35.4924L18.4563 35.4866L18.4592 35.4837L18.4621 35.4779L18.465 35.475L18.4679 35.4721L18.4708 35.4663L18.4766 35.4576L18.4795 35.4547L18.4824 35.4489L18.4853 35.446L18.4882 35.4402L18.4912 35.4373L18.497 35.4315L18.4999 35.4286L18.5057 35.4228L18.5086 35.4199L18.5144 35.4142V35.4113L18.5202 35.4055V35.4026L18.526 35.3968L18.5318 35.391L18.5376 35.3852H18.5405L18.5463 35.3794L18.5492 35.3765L18.5551 35.3707H18.558L18.5638 35.3649L18.5667 35.362L18.5725 35.3562L18.5754 35.3533L18.5812 35.3475L18.5841 35.3446L18.5899 35.3417L18.5928 35.3388L18.5986 35.3359L18.6015 35.333L18.6102 35.3272L18.6161 35.3243L18.619 35.3214L18.6219 35.3185L18.6277 35.3156L18.6306 35.3127L18.6364 35.3098L18.6393 35.3069L18.6451 35.304H18.648L18.6538 35.3011H18.6567L18.6654 35.2982H18.6683L18.6771 35.2953L18.6858 35.2924C18.6974 35.2866 18.7119 35.2837 18.7235 35.2808L18.7322 35.2779L18.741 35.275H18.7439L18.7526 35.2721C18.7613 35.2692 18.7729 35.2692 18.7816 35.2663H18.7845H18.7932H18.7961H18.8049H18.8078H18.8136H18.8223H18.8252H18.831H18.8339H18.8426H18.8513H18.8542H18.8601H18.863H18.8717H18.8746C18.8833 35.2663 18.8949 35.2692 18.9036 35.2721L18.9123 35.275H18.9152L18.924 35.2779L18.9327 35.2808C18.9443 35.2837 18.9588 35.2895 18.9704 35.2924L18.9791 35.2953L18.9879 35.2982H18.9908L18.9995 35.3011H19.0024L19.0082 35.304H19.0111L19.0169 35.3069L19.0198 35.3098L19.0256 35.3127L19.0285 35.3156L19.0343 35.3185L19.0372 35.3214L19.0401 35.3243L19.046 35.3272L19.0547 35.333L19.0576 35.3359L19.0634 35.3388L19.0663 35.3417L19.0721 35.3446L19.075 35.3475L19.0808 35.3533L19.0837 35.3562L19.0895 35.362L19.0924 35.3649L19.0982 35.3707H19.1011L19.107 35.3765L19.1099 35.3794L19.1157 35.3852H19.1186L19.1244 35.391L19.1302 35.3968L19.136 35.4026V35.4055L19.1418 35.4113V35.4142L19.1476 35.4199L19.1505 35.4228L19.1563 35.4286L19.1592 35.4315L19.165 35.4373L19.1679 35.4402L19.1709 35.446L19.1738 35.4489L19.1767 35.4547L19.1796 35.4576L19.1854 35.4663L19.1883 35.4721L19.1912 35.475L19.1941 35.4779L19.197 35.4837L19.1999 35.4866L19.2028 35.4924L19.2057 35.4953L20.8091 38.5508C20.8411 38.6117 20.8556 38.6755 20.8556 38.7421H20.8585V41.3512H23.4234V35.6838C23.4234 35.4547 23.6093 35.2721 23.8358 35.2721H24.6288L25.5699 32.6022C25.6455 32.3876 25.8807 32.2746 26.0957 32.35C26.2177 32.3934 26.3048 32.4862 26.3484 32.5964L27.336 35.275H27.792V30.7526C27.792 30.6541 27.8269 30.5671 27.8821 30.4946L29.3606 28.4016V24.2358C29.3606 24.2039 29.3635 24.172 29.3722 24.143L31.1906 13.5097V13.5068V13.501V13.4952V13.4894V13.4836V13.4778V13.4749L31.1935 13.4691V13.4662L31.1964 13.4604V13.4575L31.1993 13.4517V13.4488V13.4459L31.2022 13.4372L31.2051 13.4285V13.4256L31.208 13.4169V13.414L31.2109 13.4053C31.2196 13.3879 31.2283 13.3705 31.237 13.3531C31.2428 13.3444 31.2486 13.3357 31.2545 13.327L31.2661 13.3125L31.2719 13.3068L31.2777 13.2981L31.2835 13.2923L31.2893 13.2865L31.2951 13.2807L31.3009 13.2749L31.3067 13.2691L31.3126 13.2633L31.3213 13.2575L31.3271 13.2517L31.3416 13.2401C31.3503 13.2343 31.359 13.2285 31.3677 13.2227C31.3852 13.214 31.4026 13.2024 31.42 13.1966L31.4287 13.1937H31.4316L31.4404 13.1908H31.4433L31.452 13.1879L31.4607 13.185H31.4636H31.4665L31.4723 13.1821H31.4752L31.481 13.1792H31.4839L31.4897 13.1763H31.4926H31.4985H31.5043H31.5101H31.5159L31.5275 13.1734H31.5304H31.5362H31.5391H31.5449H31.5478H31.5536H31.5565H31.5624H31.574H31.5769H31.5856H31.5885H31.6001H31.6059H31.6088H31.6146H31.6175H31.6234H31.6263H31.6321H31.635L31.6466 13.1763H31.6524H31.6582H31.664H31.6698H31.6727L31.6785 13.1792H31.6815L31.6873 13.1821H31.6902L31.696 13.185H31.6989H31.7018L31.7105 13.1879L31.7192 13.1908H31.7221L31.7308 13.1937H31.7337L31.7425 13.1966C31.7599 13.2053 31.7773 13.214 31.7947 13.2227C31.8034 13.2285 31.8122 13.2343 31.8209 13.2401L31.8354 13.2517L31.8441 13.2575L31.8528 13.2633L31.8586 13.2691L31.8644 13.2749L31.8703 13.2807L31.8761 13.2865L31.8819 13.2923L31.8877 13.2981L31.8935 13.3068L31.8993 13.3125L31.9109 13.327C31.9167 13.3357 31.9225 13.3444 31.9284 13.3531C31.94 13.3705 31.9487 13.3879 31.9545 13.4053L31.9574 13.414V13.4169L31.9603 13.4256V13.4285L31.9632 13.4372L31.9661 13.4459V13.4488V13.4517L31.969 13.4575V13.4604L31.9719 13.4662V13.4691L31.9748 13.4749V13.4778V13.4836V13.4894V13.4952V13.501V13.5068V13.5097L33.7932 24.143C33.799 24.172 33.8048 24.2039 33.8048 24.2358V28.4016L35.2833 30.4946C35.3385 30.5642 35.3733 30.6541 35.3733 30.7526V35.2692H35.8294L36.817 32.5906C36.8577 32.4804 36.9477 32.3847 37.0697 32.3442C37.2846 32.2688 37.5199 32.3818 37.5954 32.5964L38.5366 35.2663H39.3296C39.559 35.2663 39.742 35.4518 39.742 35.678V41.3454H42.3069V38.7363H42.3098C42.3098 38.6726 42.3243 38.6059 42.3563 38.545L43.9597 35.4895L43.951 35.4924ZM21.0647 53.0717H20.6813C20.5303 53.0717 20.4054 52.947 20.4054 52.7963V46.8244C20.4054 46.6737 20.5303 46.549 20.6813 46.549H21.1954C21.2826 46.549 21.3697 46.5925 21.422 46.6679L24.1437 50.5844L26.848 46.6853C26.8945 46.6041 26.9845 46.549 27.0862 46.549H27.6003C27.7514 46.549 27.8763 46.6737 27.8763 46.8244V52.7963C27.8763 52.947 27.7514 53.0717 27.6003 53.0717H27.2169C27.0659 53.0717 26.941 52.947 26.941 52.7963V48.2159L24.3703 51.9208C24.3529 51.9498 24.3267 51.973 24.2977 51.9961C24.1728 52.0831 24.0014 52.0512 23.9143 51.9266L21.3349 48.2159V52.7963C21.3407 52.9499 21.2158 53.0717 21.0647 53.0717ZM33.4679 53.0717H29.1079C29.0992 53.0717 29.0904 53.0717 29.0846 53.0717C28.9336 53.0717 28.8087 52.947 28.8087 52.7963V46.8244C28.8087 46.6737 28.9336 46.549 29.0846 46.549H33.4766C33.5928 46.549 33.7089 46.5606 33.8251 46.5838L33.8367 46.5867C33.9558 46.6128 34.072 46.6476 34.1824 46.6969C34.287 46.7403 34.3886 46.7954 34.4874 46.8592L34.5048 46.8708C34.6036 46.9346 34.6936 47.0099 34.7808 47.094C34.8679 47.181 34.9464 47.2738 35.0161 47.3723C35.0829 47.4709 35.141 47.5752 35.1933 47.6854C35.2455 47.8014 35.2833 47.9202 35.3094 48.0449C35.3356 48.1695 35.3472 48.2942 35.3472 48.4159C35.3472 48.6942 35.2949 48.9493 35.1874 49.1842C35.0829 49.4161 34.9231 49.6248 34.714 49.8074C34.9173 49.9872 35.0713 50.1901 35.1787 50.4191L35.1874 50.4365C35.2949 50.6713 35.3472 50.9264 35.3472 51.2076C35.3472 51.3294 35.3356 51.4482 35.3123 51.57C35.2891 51.6918 35.2542 51.8106 35.2049 51.9237C35.1613 52.0251 35.1061 52.1237 35.0451 52.2165L35.0335 52.2339C34.9667 52.3295 34.8912 52.4223 34.8069 52.5064C34.7227 52.5904 34.6297 52.6658 34.531 52.7325C34.4293 52.8021 34.3218 52.8629 34.2115 52.9122C34.0953 52.9644 33.9762 53.005 33.8513 53.0311C33.7293 53.0572 33.6044 53.0717 33.4766 53.0746L33.4679 53.0717ZM34.0226 49.8248C34.0226 49.8161 34.0226 49.8045 34.0226 49.7958L33.982 49.8103L34.0226 49.8248ZM29.7411 50.2771V52.1411H33.4737C33.6044 52.1411 33.7264 52.1179 33.8367 52.0744C33.9442 52.0309 34.0459 51.9614 34.1388 51.8715C34.2289 51.7816 34.2928 51.686 34.3364 51.5845L34.3422 51.5729C34.3857 51.4627 34.409 51.341 34.409 51.2105C34.409 51.0801 34.3857 50.9583 34.3422 50.8482C34.2986 50.7409 34.2289 50.6394 34.1388 50.5496C34.0488 50.4597 33.9471 50.393 33.8367 50.3495C33.7264 50.3061 33.6044 50.2829 33.4737 50.2829H29.7411V50.2771ZM29.7411 47.4825V49.3465H33.4737C33.6073 49.3465 33.7293 49.3233 33.8367 49.2798C33.9442 49.2363 34.0459 49.1668 34.1388 49.0769C34.2289 48.987 34.2957 48.8856 34.3422 48.7783C34.3857 48.6681 34.409 48.5464 34.409 48.4159C34.409 48.2855 34.3857 48.1608 34.3422 48.0536C34.2986 47.9463 34.2289 47.8448 34.1388 47.755C34.0459 47.6651 33.9471 47.5955 33.8367 47.5521C33.7264 47.5086 33.6044 47.4854 33.4737 47.4854L29.7411 47.4825ZM36.8373 53.0717H36.4539C36.3029 53.0717 36.1779 52.947 36.1779 52.7963V48.413C36.1779 48.2942 36.1896 48.1724 36.2157 48.0536C36.2389 47.9347 36.2767 47.8188 36.3261 47.7057C36.3726 47.5955 36.4307 47.4912 36.4975 47.3926C36.5643 47.294 36.6398 47.2013 36.7211 47.1143C36.8083 47.0273 36.8983 46.9491 36.9942 46.8824C37.0929 46.8128 37.1975 46.7548 37.3108 46.7027C37.427 46.6505 37.5461 46.6099 37.671 46.5867C37.7959 46.5606 37.9208 46.549 38.0457 46.549H40.8429C40.962 46.549 41.084 46.5606 41.206 46.5867C41.3164 46.6099 41.4239 46.6418 41.5284 46.6853C41.5371 46.6882 41.543 46.6911 41.5517 46.694C41.662 46.7404 41.7666 46.7983 41.8654 46.865C41.9641 46.9317 42.0542 47.0071 42.1384 47.0911C42.2227 47.1781 42.3011 47.268 42.3679 47.3665C42.4347 47.4651 42.4957 47.5694 42.5451 47.6825C42.5974 47.7985 42.638 47.9202 42.6642 48.042C42.6903 48.1608 42.7048 48.2855 42.7077 48.4159V48.4217V52.7731C42.7077 52.7818 42.7077 52.7905 42.7077 52.7963C42.7077 52.947 42.5828 53.0717 42.4318 53.0717H42.0484C41.8973 53.0717 41.7724 52.947 41.7724 52.7963V51.2076H37.1045V52.7963C37.1133 52.9499 36.9913 53.0717 36.8373 53.0717ZM37.1133 48.413V50.2771H41.7811V48.413C41.7811 48.2826 41.7579 48.1579 41.7143 48.0507C41.6708 47.9434 41.601 47.8419 41.511 47.7521C41.418 47.6622 41.3193 47.5926 41.2089 47.5492C41.0985 47.5057 40.9765 47.4825 40.8458 47.4825H38.0486C37.915 47.4825 37.793 47.5057 37.6855 47.5492C37.578 47.5926 37.4764 47.6622 37.3834 47.7521C37.2934 47.8419 37.2265 47.9434 37.1801 48.0507C37.1365 48.1579 37.1133 48.2797 37.1133 48.413ZM31.6931 10.0251L31.9864 10.9354L32.945 10.9325C33.0205 10.9325 33.0815 10.9934 33.0815 11.0688C33.0815 11.1151 33.0583 11.1557 33.0234 11.1789L32.2479 11.7384L32.5471 12.6458C32.5703 12.7183 32.5296 12.7965 32.4599 12.8197C32.4134 12.8342 32.3641 12.8226 32.3292 12.7936L31.5653 12.237L30.7926 12.7994C30.7316 12.8429 30.6445 12.8313 30.6009 12.7704C30.5748 12.7328 30.5689 12.6864 30.5806 12.6487L30.8768 11.7413L30.1013 11.1818C30.0403 11.1383 30.0258 11.0514 30.0693 10.9905C30.0984 10.9499 30.1449 10.9296 30.1913 10.9354L31.1383 10.9383L31.4316 10.028C31.4549 9.95557 31.5333 9.91498 31.6059 9.93817C31.6466 9.94977 31.6785 9.98456 31.6931 10.0251Z" fill="white"/>
</svg>
