<svg width="12" height="15" viewBox="0 0 12 15" fill="none" xmlns="http://www.w3.org/2000/svg">
<path d="M6 14.8183L1.75734 10.5756C0.918228 9.7365 0.346791 8.66741 0.115286 7.50352C-0.11622 6.33964 0.00260456 5.13324 0.456732 4.03689C0.91086 2.94054 1.6799 2.00347 2.66659 1.34419C3.65328 0.6849 4.81332 0.333008 6 0.333008C7.18669 0.333008 8.34672 0.6849 9.33342 1.34419C10.3201 2.00347 11.0891 2.94054 11.5433 4.03689C11.9974 5.13324 12.1162 6.33964 11.8847 7.50352C11.6532 8.66741 11.0818 9.7365 10.2427 10.5756L6 14.8183ZM9.3 9.63296C9.9526 8.98029 10.397 8.14877 10.577 7.24354C10.7571 6.33831 10.6646 5.40002 10.3114 4.54733C9.95817 3.69463 9.36003 2.96583 8.59261 2.45307C7.82519 1.94031 6.92296 1.66663 6 1.66663C5.07704 1.66663 4.17481 1.94031 3.40739 2.45307C2.63997 2.96583 2.04183 3.69463 1.68861 4.54733C1.33539 5.40002 1.24294 6.33831 1.42297 7.24354C1.603 8.14877 2.04741 8.98029 2.7 9.63296L6 12.933L9.3 9.63296ZM6 7.66629C5.64638 7.66629 5.30724 7.52581 5.05719 7.27576C4.80715 7.02572 4.66667 6.68658 4.66667 6.33296C4.66667 5.97933 4.80715 5.6402 5.05719 5.39015C5.30724 5.1401 5.64638 4.99962 6 4.99962C6.35362 4.99962 6.69276 5.1401 6.94281 5.39015C7.19286 5.6402 7.33334 5.97933 7.33334 6.33296C7.33334 6.68658 7.19286 7.02572 6.94281 7.27576C6.69276 7.52581 6.35362 7.66629 6 7.66629Z" fill="#09121F"/>
</svg>
