<svg width="18" height="10" viewBox="0 0 18 10" fill="none" xmlns="http://www.w3.org/2000/svg">
<path fill-rule="evenodd" clip-rule="evenodd" d="M8.81966 9.5202H9.77966C9.77966 9.5202 10.0597 9.4802 10.2197 9.3202C10.3597 9.1802 10.3597 8.9002 10.3597 8.9002C10.3597 8.9002 10.3397 7.6202 10.9397 7.4202C11.5197 7.2402 12.2797 8.6602 13.0797 9.2002C13.6797 9.6202 14.1397 9.5202 14.1397 9.5202L16.2797 9.5002C16.2797 9.5002 17.3997 9.4402 16.8597 8.5602C16.8197 8.4802 16.5597 7.9002 15.2797 6.7202C13.9397 5.48019 14.1197 5.68019 15.7397 3.52019C16.7197 2.22019 17.1197 1.42019 16.9997 1.06019C16.8797 0.740186 16.1597 0.820186 16.1597 0.820186L13.7597 0.840186C13.7597 0.840186 13.5797 0.820186 13.4397 0.900186C13.2797 1.00019 13.1997 1.18019 13.1997 1.18019C13.1997 1.18019 12.8197 2.20019 12.3197 3.06019C11.2397 4.88019 10.8197 4.98019 10.6397 4.86019C10.2397 4.60019 10.3397 3.80019 10.3397 3.24019C10.3397 1.48019 10.5997 0.740186 9.81966 0.560185C9.55966 0.500185 9.35966 0.460186 8.69966 0.440186C7.83966 0.440186 7.11966 0.440186 6.69966 0.640186C6.41966 0.780186 6.21966 1.08019 6.33966 1.08019C6.49966 1.10019 6.85966 1.18019 7.03966 1.44019C7.27966 1.78019 7.27966 2.52019 7.27966 2.52019C7.27966 2.52019 7.41966 4.60019 6.93966 4.86019C6.61966 5.04019 6.17966 4.68019 5.21966 3.02019C4.73966 2.18019 4.35966 1.24019 4.35966 1.24019C4.35966 1.24019 4.27966 1.06019 4.15966 0.980186C4.05966 0.900186 3.85966 0.840186 3.63966 0.840186L1.49966 0.860186C1.49966 0.860186 1.15966 0.860186 1.03966 1.02019C0.919661 1.16019 1.03966 1.42019 1.03966 1.42019C1.03966 1.42019 2.83966 5.60019 4.85966 7.7002C6.71966 9.6602 8.81966 9.5202 8.81966 9.5202Z" fill="#FF3535"/>
</svg>
