<svg width="15" height="14" viewBox="0 0 15 14" fill="none" xmlns="http://www.w3.org/2000/svg">
<path d="M7.52323 0H7.51973C3.66011 0 0.521484 3.1395 0.521484 7C0.521484 8.53125 1.01498 9.9505 1.85411 11.1029L0.981734 13.7034L3.67236 12.8433C4.77923 13.5765 6.09961 14 7.52323 14C11.3829 14 14.5215 10.8596 14.5215 7C14.5215 3.14038 11.3829 0 7.52323 0ZM11.5964 9.88488C11.4275 10.3617 10.7572 10.7572 10.2226 10.8727C9.85686 10.9506 9.37911 11.0128 7.77086 10.346C5.71373 9.49375 4.38898 7.40337 4.28573 7.26775C4.18686 7.13212 3.45448 6.16088 3.45448 5.15637C3.45448 4.15188 3.96461 3.66275 4.17023 3.45275C4.33911 3.28038 4.61823 3.20162 4.88598 3.20162C4.97261 3.20162 5.05048 3.206 5.12048 3.2095C5.32611 3.21825 5.42936 3.2305 5.56498 3.55513C5.73386 3.962 6.14511 4.9665 6.19411 5.06975C6.24398 5.173 6.29386 5.313 6.22386 5.44863C6.15823 5.58863 6.10048 5.65075 5.99723 5.76975C5.89398 5.88875 5.79598 5.97975 5.69273 6.1075C5.59823 6.21863 5.49148 6.33763 5.61048 6.54325C5.72948 6.7445 6.14073 7.41562 6.74623 7.95462C7.52761 8.65025 8.16111 8.8725 8.38773 8.967C8.55661 9.037 8.75786 9.02038 8.88123 8.88913C9.03786 8.72025 9.23123 8.44025 9.42811 8.16463C9.56811 7.96688 9.74486 7.94237 9.93036 8.01237C10.1194 8.078 11.1195 8.57237 11.3251 8.67475C11.5307 8.778 11.6664 8.827 11.7162 8.91363C11.7652 9.00025 11.7652 9.40712 11.5964 9.88488Z" fill="#FF3535"/>
</svg>
